{
	"asset":{
		"generator":"Khronos glTF Blender I/O v4.3.47",
		"version":"2.0"
	},
	"extensionsUsed":[
		"KHR_materials_specular"
	],
	"scene":0,
	"scenes":[
		{
			"name":"Scene",
			"nodes":[
				0,
				1,
				10
			]
		}
	],
	"nodes":[
		{
			"mesh":0,
			"name":"base",
			"translation":[
				0,
				0.10188937932252884,
				0.038811441510915756
			]
		},
		{
			"mesh":1,
			"name":"cab",
			"translation":[
				0,
				0.10188937932252884,
				0.038811441510915756
			]
		},
		{
			"mesh":2,
			"name":"boom3"
		},
		{
			"mesh":3,
			"name":"boom2"
		},
		{
			"mesh":4,
			"name":"boom1"
		},
		{
			"mesh":5,
			"name":"boom0",
			"translation":[
				0,
				0,
				-0.006798744201660156
			]
		},
		{
			"mesh":6,
			"name":"box",
			"translation":[
				0.17028844356536865,
				0.26330244541168213,
				-8.211202621459961
			]
		},
		{
			"children":[
				5,
				6
			],
			"name":"boom6"
		},
		{
			"children":[
				4,
				7
			],
			"name":"boom5"
		},
		{
			"children":[
				3,
				8
			],
			"name":"boom4"
		},
		{
			"children":[
				2,
				9
			],
			"name":"boom"
		}
	],
	"animations":[
		{
			"channels":[
				{
					"sampler":0,
					"target":{
						"node":0,
						"path":"translation"
					}
				},
				{
					"sampler":1,
					"target":{
						"node":0,
						"path":"rotation"
					}
				},
				{
					"sampler":2,
					"target":{
						"node":0,
						"path":"scale"
					}
				}
			],
			"name":"base|Take 001|BaseLayer",
			"samplers":[
				{
					"input":43,
					"interpolation":"LINEAR",
					"output":44
				},
				{
					"input":43,
					"interpolation":"LINEAR",
					"output":45
				},
				{
					"input":43,
					"interpolation":"LINEAR",
					"output":46
				}
			]
		},
		{
			"channels":[
				{
					"sampler":0,
					"target":{
						"node":1,
						"path":"translation"
					}
				},
				{
					"sampler":1,
					"target":{
						"node":1,
						"path":"rotation"
					}
				},
				{
					"sampler":2,
					"target":{
						"node":1,
						"path":"scale"
					}
				}
			],
			"name":"cab|Take 001|BaseLayer",
			"samplers":[
				{
					"input":43,
					"interpolation":"LINEAR",
					"output":47
				},
				{
					"input":43,
					"interpolation":"LINEAR",
					"output":48
				},
				{
					"input":43,
					"interpolation":"LINEAR",
					"output":49
				}
			]
		},
		{
			"channels":[
				{
					"sampler":0,
					"target":{
						"node":2,
						"path":"translation"
					}
				},
				{
					"sampler":1,
					"target":{
						"node":2,
						"path":"rotation"
					}
				},
				{
					"sampler":2,
					"target":{
						"node":2,
						"path":"scale"
					}
				}
			],
			"name":"boom3|Take 001|BaseLayer",
			"samplers":[
				{
					"input":43,
					"interpolation":"LINEAR",
					"output":50
				},
				{
					"input":43,
					"interpolation":"LINEAR",
					"output":51
				},
				{
					"input":43,
					"interpolation":"LINEAR",
					"output":52
				}
			]
		},
		{
			"channels":[
				{
					"sampler":0,
					"target":{
						"node":5,
						"path":"translation"
					}
				},
				{
					"sampler":1,
					"target":{
						"node":5,
						"path":"rotation"
					}
				},
				{
					"sampler":2,
					"target":{
						"node":5,
						"path":"scale"
					}
				}
			],
			"name":"boom0|Take 001|BaseLayer",
			"samplers":[
				{
					"input":43,
					"interpolation":"LINEAR",
					"output":53
				},
				{
					"input":43,
					"interpolation":"LINEAR",
					"output":54
				},
				{
					"input":43,
					"interpolation":"LINEAR",
					"output":55
				}
			]
		},
		{
			"channels":[
				{
					"sampler":0,
					"target":{
						"node":6,
						"path":"translation"
					}
				},
				{
					"sampler":1,
					"target":{
						"node":6,
						"path":"rotation"
					}
				},
				{
					"sampler":2,
					"target":{
						"node":6,
						"path":"scale"
					}
				}
			],
			"name":"box|Take 001|BaseLayer",
			"samplers":[
				{
					"input":43,
					"interpolation":"LINEAR",
					"output":56
				},
				{
					"input":43,
					"interpolation":"LINEAR",
					"output":57
				},
				{
					"input":43,
					"interpolation":"LINEAR",
					"output":58
				}
			]
		}
	],
	"materials":[
		{
			"doubleSided":true,
			"extensions":{
				"KHR_materials_specular":{
					"specularColorFactor":[
						2.0,
						2.0,
						2.0
					]
				}
			},
			"name":"14 - Default",
			"pbrMetallicRoughness":{
				"baseColorFactor":[
					0.2352941334247589,
					0.2352941334247589,
					0.2352941334247589,
					1
				],
				"roughnessFactor":0.6517797708511353
			}
		},
		{
			"doubleSided":true,
			"extensions":{
				"KHR_materials_specular":{
					"specularColorFactor":[
						2.0,
						2.0,
						2.0
					]
				}
			},
			"name":"13 - Default",
			"pbrMetallicRoughness":{
				"baseColorFactor":[
					1,
					0.9215686917304993,
					0.26274511218070984,
					1
				],
				"roughnessFactor":0.6636413931846619
			}
		},
		{
			"alphaMode":"BLEND",
			"doubleSided":true,
			"extensions":{
				"KHR_materials_specular":{
					"specularFactor":0
				}
			},
			"name":"16 - Default",
			"pbrMetallicRoughness":{
				"baseColorFactor":[
					0.5882353186607361,
					0.5882353186607361,
					0.5882353186607361,
					0.19999998807907104
				],
				"roughnessFactor":0.858578622341156
			}
		}
	],
	"meshes":[
		{
			"name":"\u7f51\u683c",
			"primitives":[
				{
					"attributes":{
						"POSITION":0,
						"NORMAL":1,
						"TEXCOORD_0":2
					},
					"indices":3,
					"material":0
				},
				{
					"attributes":{
						"POSITION":4,
						"NORMAL":5,
						"TEXCOORD_0":6
					},
					"indices":7,
					"material":1
				},
				{
					"attributes":{
						"POSITION":8,
						"NORMAL":9,
						"TEXCOORD_0":10
					},
					"indices":11,
					"material":2
				}
			]
		},
		{
			"name":"\u7f51\u683c.001",
			"primitives":[
				{
					"attributes":{
						"POSITION":12,
						"NORMAL":13,
						"TEXCOORD_0":14
					},
					"indices":15,
					"material":1
				},
				{
					"attributes":{
						"POSITION":16,
						"NORMAL":17,
						"TEXCOORD_0":18
					},
					"indices":19,
					"material":2
				}
			]
		},
		{
			"name":"\u7f51\u683c.006",
			"primitives":[
				{
					"attributes":{
						"POSITION":20,
						"NORMAL":21,
						"TEXCOORD_0":22
					},
					"indices":23,
					"material":1
				}
			]
		},
		{
			"name":"\u7f51\u683c.005",
			"primitives":[
				{
					"attributes":{
						"POSITION":24,
						"NORMAL":25,
						"TEXCOORD_0":26
					},
					"indices":27,
					"material":1
				}
			]
		},
		{
			"name":"\u7f51\u683c.002",
			"primitives":[
				{
					"attributes":{
						"POSITION":28,
						"NORMAL":29,
						"TEXCOORD_0":30
					},
					"indices":27,
					"material":1
				}
			]
		},
		{
			"name":"\u7f51\u683c.004",
			"primitives":[
				{
					"attributes":{
						"POSITION":31,
						"NORMAL":32,
						"TEXCOORD_0":33
					},
					"indices":34,
					"material":1
				},
				{
					"attributes":{
						"POSITION":35,
						"NORMAL":36,
						"TEXCOORD_0":37
					},
					"indices":38,
					"material":0
				}
			]
		},
		{
			"name":"\u7f51\u683c.003",
			"primitives":[
				{
					"attributes":{
						"POSITION":39,
						"NORMAL":40,
						"TEXCOORD_0":41
					},
					"indices":42
				}
			]
		}
	],
	"accessors":[
		{
			"bufferView":0,
			"componentType":5126,
			"count":106223,
			"max":[
				1.6728993654251099,
				-0.3984799385070801,
				4.853028774261475
			],
			"min":[
				-1.6729849576950073,
				-3.0725340843200684,
				-6.340854167938232
			],
			"type":"VEC3"
		},
		{
			"bufferView":1,
			"componentType":5126,
			"count":106223,
			"type":"VEC3"
		},
		{
			"bufferView":2,
			"componentType":5126,
			"count":106223,
			"type":"VEC2"
		},
		{
			"bufferView":3,
			"componentType":5125,
			"count":233223,
			"type":"SCALAR"
		},
		{
			"bufferView":4,
			"componentType":5126,
			"count":12256,
			"max":[
				1.6603301763534546,
				-0.19599270820617676,
				1.7268354892730713
			],
			"min":[
				-1.6689337491989136,
				-2.0048370361328125,
				-6.3269572257995605
			],
			"type":"VEC3"
		},
		{
			"bufferView":5,
			"componentType":5126,
			"count":12256,
			"type":"VEC3"
		},
		{
			"bufferView":6,
			"componentType":5126,
			"count":12256,
			"type":"VEC2"
		},
		{
			"bufferView":7,
			"componentType":5123,
			"count":51078,
			"type":"SCALAR"
		},
		{
			"bufferView":8,
			"componentType":5126,
			"count":16,
			"max":[
				1.2532094717025757,
				-0.3237793445587158,
				-4.625119686126709
			],
			"min":[
				-1.2532950639724731,
				-1.278782844543457,
				-6.081180095672607
			],
			"type":"VEC3"
		},
		{
			"bufferView":9,
			"componentType":5126,
			"count":16,
			"type":"VEC3"
		},
		{
			"bufferView":10,
			"componentType":5126,
			"count":16,
			"type":"VEC2"
		},
		{
			"bufferView":11,
			"componentType":5123,
			"count":30,
			"type":"SCALAR"
		},
		{
			"bufferView":12,
			"componentType":5126,
			"count":27200,
			"max":[
				0.9626944065093994,
				0.6994038820266724,
				4.945884704589844
			],
			"min":[
				-1.4790937900543213,
				-1.2543636560440063,
				-1.3530373573303223
			],
			"type":"VEC3"
		},
		{
			"bufferView":13,
			"componentType":5126,
			"count":27200,
			"type":"VEC3"
		},
		{
			"bufferView":14,
			"componentType":5126,
			"count":27200,
			"type":"VEC2"
		},
		{
			"bufferView":15,
			"componentType":5123,
			"count":113970,
			"type":"SCALAR"
		},
		{
			"bufferView":16,
			"componentType":5126,
			"count":42,
			"max":[
				-0.5394246578216553,
				0.5521554350852966,
				0.7620048522949219
			],
			"min":[
				-1.446937084197998,
				-0.49830660223960876,
				-1.260200023651123
			],
			"type":"VEC3"
		},
		{
			"bufferView":17,
			"componentType":5126,
			"count":42,
			"type":"VEC3"
		},
		{
			"bufferView":18,
			"componentType":5126,
			"count":42,
			"type":"VEC2"
		},
		{
			"bufferView":19,
			"componentType":5123,
			"count":90,
			"type":"SCALAR"
		},
		{
			"bufferView":20,
			"componentType":5126,
			"count":8579,
			"max":[
				1.4669523239135742,
				0.8028509616851807,
				1.946489930152893
			],
			"min":[
				-0.47193101048469543,
				-0.6352448463439941,
				-8.617554664611816
			],
			"type":"VEC3"
		},
		{
			"bufferView":21,
			"componentType":5126,
			"count":8579,
			"type":"VEC3"
		},
		{
			"bufferView":22,
			"componentType":5126,
			"count":8579,
			"type":"VEC2"
		},
		{
			"bufferView":23,
			"componentType":5123,
			"count":24804,
			"type":"SCALAR"
		},
		{
			"bufferView":24,
			"componentType":5126,
			"count":890,
			"max":[
				0.3859437108039856,
				0.6867235898971558,
				1.9321337938308716
			],
			"min":[
				-0.4316174387931824,
				-0.07868784666061401,
				-6.97088623046875
			],
			"type":"VEC3"
		},
		{
			"bufferView":25,
			"componentType":5126,
			"count":890,
			"type":"VEC3"
		},
		{
			"bufferView":26,
			"componentType":5126,
			"count":890,
			"type":"VEC2"
		},
		{
			"bufferView":27,
			"componentType":5123,
			"count":1752,
			"type":"SCALAR"
		},
		{
			"bufferView":28,
			"componentType":5126,
			"count":890,
			"max":[
				0.3686544895172119,
				0.6895134449005127,
				1.7631049156188965
			],
			"min":[
				-0.4120016098022461,
				-0.06108829379081726,
				-7.139616966247559
			],
			"type":"VEC3"
		},
		{
			"bufferView":29,
			"componentType":5126,
			"count":890,
			"type":"VEC3"
		},
		{
			"bufferView":30,
			"componentType":5126,
			"count":890,
			"type":"VEC2"
		},
		{
			"bufferView":31,
			"componentType":5126,
			"count":18299,
			"max":[
				0.3778573274612427,
				0.7507335543632507,
				2.21602725982666
			],
			"min":[
				-0.3524441123008728,
				-2.2853775024414062,
				-9.28239917755127
			],
			"type":"VEC3"
		},
		{
			"bufferView":32,
			"componentType":5126,
			"count":18299,
			"type":"VEC3"
		},
		{
			"bufferView":33,
			"componentType":5126,
			"count":18299,
			"type":"VEC2"
		},
		{
			"bufferView":34,
			"componentType":5123,
			"count":61416,
			"type":"SCALAR"
		},
		{
			"bufferView":35,
			"componentType":5126,
			"count":3089,
			"max":[
				0.12977395951747894,
				0.6185848116874695,
				-8.214632987976074
			],
			"min":[
				-0.14156879484653473,
				-1.94877028465271,
				-9.275323867797852
			],
			"type":"VEC3"
		},
		{
			"bufferView":36,
			"componentType":5126,
			"count":3089,
			"type":"VEC3"
		},
		{
			"bufferView":37,
			"componentType":5126,
			"count":3089,
			"type":"VEC2"
		},
		{
			"bufferView":38,
			"componentType":5123,
			"count":12741,
			"type":"SCALAR"
		},
		{
			"bufferView":39,
			"componentType":5126,
			"count":24,
			"max":[
				3.579582852353269e-08,
				0.12727820873260498,
				0.11795776337385178
			],
			"min":[
				-0.2932538688182831,
				-0.12727825343608856,
				-0.11795780807733536
			],
			"type":"VEC3"
		},
		{
			"bufferView":40,
			"componentType":5126,
			"count":24,
			"type":"VEC3"
		},
		{
			"bufferView":41,
			"componentType":5126,
			"count":24,
			"type":"VEC2"
		},
		{
			"bufferView":42,
			"componentType":5123,
			"count":36,
			"type":"SCALAR"
		},
		{
			"bufferView":43,
			"componentType":5126,
			"count":1,
			"max":[
				0.03333333333333333
			],
			"min":[
				0.03333333333333333
			],
			"type":"SCALAR"
		},
		{
			"bufferView":44,
			"componentType":5126,
			"count":1,
			"type":"VEC3"
		},
		{
			"bufferView":45,
			"componentType":5126,
			"count":1,
			"type":"VEC4"
		},
		{
			"bufferView":46,
			"componentType":5126,
			"count":1,
			"type":"VEC3"
		},
		{
			"bufferView":47,
			"componentType":5126,
			"count":1,
			"type":"VEC3"
		},
		{
			"bufferView":48,
			"componentType":5126,
			"count":1,
			"type":"VEC4"
		},
		{
			"bufferView":49,
			"componentType":5126,
			"count":1,
			"type":"VEC3"
		},
		{
			"bufferView":50,
			"componentType":5126,
			"count":1,
			"type":"VEC3"
		},
		{
			"bufferView":51,
			"componentType":5126,
			"count":1,
			"type":"VEC4"
		},
		{
			"bufferView":52,
			"componentType":5126,
			"count":1,
			"type":"VEC3"
		},
		{
			"bufferView":53,
			"componentType":5126,
			"count":1,
			"type":"VEC3"
		},
		{
			"bufferView":54,
			"componentType":5126,
			"count":1,
			"type":"VEC4"
		},
		{
			"bufferView":55,
			"componentType":5126,
			"count":1,
			"type":"VEC3"
		},
		{
			"bufferView":56,
			"componentType":5126,
			"count":1,
			"type":"VEC3"
		},
		{
			"bufferView":57,
			"componentType":5126,
			"count":1,
			"type":"VEC4"
		},
		{
			"bufferView":58,
			"componentType":5126,
			"count":1,
			"type":"VEC3"
		}
	],
	"bufferViews":[
		{
			"buffer":0,
			"byteLength":1274676,
			"byteOffset":0,
			"target":34962
		},
		{
			"buffer":0,
			"byteLength":1274676,
			"byteOffset":1274676,
			"target":34962
		},
		{
			"buffer":0,
			"byteLength":849784,
			"byteOffset":2549352,
			"target":34962
		},
		{
			"buffer":0,
			"byteLength":932892,
			"byteOffset":3399136,
			"target":34963
		},
		{
			"buffer":0,
			"byteLength":147072,
			"byteOffset":4332028,
			"target":34962
		},
		{
			"buffer":0,
			"byteLength":147072,
			"byteOffset":4479100,
			"target":34962
		},
		{
			"buffer":0,
			"byteLength":98048,
			"byteOffset":4626172,
			"target":34962
		},
		{
			"buffer":0,
			"byteLength":102156,
			"byteOffset":4724220,
			"target":34963
		},
		{
			"buffer":0,
			"byteLength":192,
			"byteOffset":4826376,
			"target":34962
		},
		{
			"buffer":0,
			"byteLength":192,
			"byteOffset":4826568,
			"target":34962
		},
		{
			"buffer":0,
			"byteLength":128,
			"byteOffset":4826760,
			"target":34962
		},
		{
			"buffer":0,
			"byteLength":60,
			"byteOffset":4826888,
			"target":34963
		},
		{
			"buffer":0,
			"byteLength":326400,
			"byteOffset":4826948,
			"target":34962
		},
		{
			"buffer":0,
			"byteLength":326400,
			"byteOffset":5153348,
			"target":34962
		},
		{
			"buffer":0,
			"byteLength":217600,
			"byteOffset":5479748,
			"target":34962
		},
		{
			"buffer":0,
			"byteLength":227940,
			"byteOffset":5697348,
			"target":34963
		},
		{
			"buffer":0,
			"byteLength":504,
			"byteOffset":5925288,
			"target":34962
		},
		{
			"buffer":0,
			"byteLength":504,
			"byteOffset":5925792,
			"target":34962
		},
		{
			"buffer":0,
			"byteLength":336,
			"byteOffset":5926296,
			"target":34962
		},
		{
			"buffer":0,
			"byteLength":180,
			"byteOffset":5926632,
			"target":34963
		},
		{
			"buffer":0,
			"byteLength":102948,
			"byteOffset":5926812,
			"target":34962
		},
		{
			"buffer":0,
			"byteLength":102948,
			"byteOffset":6029760,
			"target":34962
		},
		{
			"buffer":0,
			"byteLength":68632,
			"byteOffset":6132708,
			"target":34962
		},
		{
			"buffer":0,
			"byteLength":49608,
			"byteOffset":6201340,
			"target":34963
		},
		{
			"buffer":0,
			"byteLength":10680,
			"byteOffset":6250948,
			"target":34962
		},
		{
			"buffer":0,
			"byteLength":10680,
			"byteOffset":6261628,
			"target":34962
		},
		{
			"buffer":0,
			"byteLength":7120,
			"byteOffset":6272308,
			"target":34962
		},
		{
			"buffer":0,
			"byteLength":3504,
			"byteOffset":6279428,
			"target":34963
		},
		{
			"buffer":0,
			"byteLength":10680,
			"byteOffset":6282932,
			"target":34962
		},
		{
			"buffer":0,
			"byteLength":10680,
			"byteOffset":6293612,
			"target":34962
		},
		{
			"buffer":0,
			"byteLength":7120,
			"byteOffset":6304292,
			"target":34962
		},
		{
			"buffer":0,
			"byteLength":219588,
			"byteOffset":6311412,
			"target":34962
		},
		{
			"buffer":0,
			"byteLength":219588,
			"byteOffset":6531000,
			"target":34962
		},
		{
			"buffer":0,
			"byteLength":146392,
			"byteOffset":6750588,
			"target":34962
		},
		{
			"buffer":0,
			"byteLength":122832,
			"byteOffset":6896980,
			"target":34963
		},
		{
			"buffer":0,
			"byteLength":37068,
			"byteOffset":7019812,
			"target":34962
		},
		{
			"buffer":0,
			"byteLength":37068,
			"byteOffset":7056880,
			"target":34962
		},
		{
			"buffer":0,
			"byteLength":24712,
			"byteOffset":7093948,
			"target":34962
		},
		{
			"buffer":0,
			"byteLength":25482,
			"byteOffset":7118660,
			"target":34963
		},
		{
			"buffer":0,
			"byteLength":288,
			"byteOffset":7144144,
			"target":34962
		},
		{
			"buffer":0,
			"byteLength":288,
			"byteOffset":7144432,
			"target":34962
		},
		{
			"buffer":0,
			"byteLength":192,
			"byteOffset":7144720,
			"target":34962
		},
		{
			"buffer":0,
			"byteLength":72,
			"byteOffset":7144912,
			"target":34963
		},
		{
			"buffer":0,
			"byteLength":4,
			"byteOffset":7144984
		},
		{
			"buffer":0,
			"byteLength":12,
			"byteOffset":7144988
		},
		{
			"buffer":0,
			"byteLength":16,
			"byteOffset":7145000
		},
		{
			"buffer":0,
			"byteLength":12,
			"byteOffset":7145016
		},
		{
			"buffer":0,
			"byteLength":12,
			"byteOffset":7145028
		},
		{
			"buffer":0,
			"byteLength":16,
			"byteOffset":7145040
		},
		{
			"buffer":0,
			"byteLength":12,
			"byteOffset":7145056
		},
		{
			"buffer":0,
			"byteLength":12,
			"byteOffset":7145068
		},
		{
			"buffer":0,
			"byteLength":16,
			"byteOffset":7145080
		},
		{
			"buffer":0,
			"byteLength":12,
			"byteOffset":7145096
		},
		{
			"buffer":0,
			"byteLength":12,
			"byteOffset":7145108
		},
		{
			"buffer":0,
			"byteLength":16,
			"byteOffset":7145120
		},
		{
			"buffer":0,
			"byteLength":12,
			"byteOffset":7145136
		},
		{
			"buffer":0,
			"byteLength":12,
			"byteOffset":7145148
		},
		{
			"buffer":0,
			"byteLength":16,
			"byteOffset":7145160
		},
		{
			"buffer":0,
			"byteLength":12,
			"byteOffset":7145176
		}
	],
	"buffers":[
		{
			"byteLength":7145188,
			"uri":"dc.bin"
		}
	]
}
